<svg width="64" height="64" viewBox="0 0 64 64" fill="#bbf7d066" xmlns="http://www.w3.org/2000/svg" class="" stroke="#166534" stroke-width="2" stroke-linecap="round" stroke-linejoin="round"><circle cx="32" cy="32" r="6" fill="currentColor"></circle><g transform="rotate(0 32 32)"><path d="M32 12 C44 12 52 22 52 32" stroke-width="2" fill="none" opacity="0.5"></path><path d="M32 12 L38 8 M32 12 L26 8" stroke-width="2"></path></g><g transform="rotate(120 32 32)"><path d="M32 12 C44 12 52 22 52 32" stroke-width="2" fill="none" opacity="0.5"></path><path d="M32 12 L38 8 M32 12 L26 8" stroke-width="2"></path></g><g transform="rotate(240 32 32)"><path d="M32 12 C44 12 52 22 52 32" stroke-width="2" fill="none" opacity="0.5"></path><path d="M32 12 L38 8 M32 12 L26 8" stroke-width="2"></path></g></svg>