<svg width="64" height="64" viewBox="0 0 64 64" fill="#fef9c366" xmlns="http://www.w3.org/2000/svg" class="" stroke="#a16207" stroke-width="2" stroke-linecap="round" stroke-linejoin="round"><circle cx="32" cy="32" r="10" stroke-width="2.5"></circle><circle cx="32" cy="32" r="22" stroke-width="1" stroke-dasharray="2 4" opacity="0.4"></circle><g transform="rotate(0 32 32) translate(0, -22)"><circle cx="0" cy="0" r="1.5" fill="currentColor" stroke="none" opacity="0.7"></circle></g><g transform="rotate(30 32 32) translate(0, -22)"><circle cx="0" cy="0" r="1.5" fill="currentColor" stroke="none" opacity="0.3"></circle></g><g transform="rotate(60 32 32) translate(0, -22)"><circle cx="0" cy="0" r="1.5" fill="currentColor" stroke="none" opacity="0.3"></circle></g><g transform="rotate(90 32 32) translate(0, -22)"><circle cx="0" cy="0" r="1.5" fill="currentColor" stroke="none" opacity="0.7"></circle></g><g transform="rotate(120 32 32) translate(0, -22)"><circle cx="0" cy="0" r="1.5" fill="currentColor" stroke="none" opacity="0.3"></circle></g><g transform="rotate(150 32 32) translate(0, -22)"><circle cx="0" cy="0" r="1.5" fill="currentColor" stroke="none" opacity="0.3"></circle></g><g transform="rotate(180 32 32) translate(0, -22)"><circle cx="0" cy="0" r="1.5" fill="currentColor" stroke="none" opacity="0.7"></circle></g><g transform="rotate(210 32 32) translate(0, -22)"><circle cx="0" cy="0" r="1.5" fill="currentColor" stroke="none" opacity="0.3"></circle></g><g transform="rotate(240 32 32) translate(0, -22)"><circle cx="0" cy="0" r="1.5" fill="currentColor" stroke="none" opacity="0.3"></circle></g><g transform="rotate(270 32 32) translate(0, -22)"><circle cx="0" cy="0" r="1.5" fill="currentColor" stroke="none" opacity="0.7"></circle></g><g transform="rotate(300 32 32) translate(0, -22)"><circle cx="0" cy="0" r="1.5" fill="currentColor" stroke="none" opacity="0.3"></circle></g><g transform="rotate(330 32 32) translate(0, -22)"><circle cx="0" cy="0" r="1.5" fill="currentColor" stroke="none" opacity="0.3"></circle></g><circle cx="32" cy="32" r="3" fill="currentColor" stroke="none"></circle><path d="M32 32 L32 16" stroke-width="2.5"></path><path d="M32 32 L44 32" stroke-width="1.5" opacity="0.6"></path></svg>