<svg width="64" height="64" viewBox="0 0 64 64" fill="#dcfce766" xmlns="http://www.w3.org/2000/svg" class="" stroke="#15803d" stroke-width="2" stroke-linecap="round" stroke-linejoin="round"><g transform="rotate(0 32 32) translate(0, -2)"><path d="M0 0 C15 -10 25 -30 0 -40 C-25 -30 -15 -10 0 0 Z" stroke-width="2.5" fill="#ffffff" stroke="#15803d"></path><path d="M0 -5 L0 -25" stroke-width="0.5" opacity="0.3"></path></g><g transform="rotate(45 32 32) translate(0, -2)"><path d="M0 0 C15 -10 25 -30 0 -40 C-25 -30 -15 -10 0 0 Z" stroke-width="1.5" fill="#ffffff" stroke="#15803d"></path><path d="M0 -5 L0 -25" stroke-width="0.5" opacity="0.3"></path></g><g transform="rotate(90 32 32) translate(0, -2)"><path d="M0 0 C15 -10 25 -30 0 -40 C-25 -30 -15 -10 0 0 Z" stroke-width="2.5" fill="#ffffff" stroke="#15803d"></path><path d="M0 -5 L0 -25" stroke-width="0.5" opacity="0.3"></path></g><g transform="rotate(135 32 32) translate(0, -2)"><path d="M0 0 C15 -10 25 -30 0 -40 C-25 -30 -15 -10 0 0 Z" stroke-width="1.5" fill="#ffffff" stroke="#15803d"></path><path d="M0 -5 L0 -25" stroke-width="0.5" opacity="0.3"></path></g><g transform="rotate(180 32 32) translate(0, -2)"><path d="M0 0 C15 -10 25 -30 0 -40 C-25 -30 -15 -10 0 0 Z" stroke-width="2.5" fill="#ffffff" stroke="#15803d"></path><path d="M0 -5 L0 -25" stroke-width="0.5" opacity="0.3"></path></g><g transform="rotate(225 32 32) translate(0, -2)"><path d="M0 0 C15 -10 25 -30 0 -40 C-25 -30 -15 -10 0 0 Z" stroke-width="1.5" fill="#ffffff" stroke="#15803d"></path><path d="M0 -5 L0 -25" stroke-width="0.5" opacity="0.3"></path></g><g transform="rotate(270 32 32) translate(0, -2)"><path d="M0 0 C15 -10 25 -30 0 -40 C-25 -30 -15 -10 0 0 Z" stroke-width="2.5" fill="#ffffff" stroke="#15803d"></path><path d="M0 -5 L0 -25" stroke-width="0.5" opacity="0.3"></path></g><g transform="rotate(315 32 32) translate(0, -2)"><path d="M0 0 C15 -10 25 -30 0 -40 C-25 -30 -15 -10 0 0 Z" stroke-width="1.5" fill="#ffffff" stroke="#15803d"></path><path d="M0 -5 L0 -25" stroke-width="0.5" opacity="0.3"></path></g><circle cx="32" cy="32" r="10" stroke-width="2.5" fill="#ffffff"></circle><circle cx="32" cy="32" r="4" fill="currentColor" stroke="none"></circle><circle cx="39" cy="32" r="1.2" fill="currentColor" stroke="none"></circle><circle cx="35.5" cy="38.06217782649107" r="1.2" fill="currentColor" stroke="none"></circle><circle cx="28.5" cy="38.06217782649107" r="1.2" fill="currentColor" stroke="none"></circle><circle cx="25" cy="32" r="1.2" fill="currentColor" stroke="none"></circle><circle cx="28.499999999999996" cy="25.93782217350893" r="1.2" fill="currentColor" stroke="none"></circle><circle cx="35.5" cy="25.93782217350893" r="1.2" fill="currentColor" stroke="none"></circle></svg>